<?xml version="1.0" encoding="UTF-8" standalone="no"?>
<svg
   xmlns:dc="http://purl.org/dc/elements/1.1/"
   xmlns:cc="http://creativecommons.org/ns#"
   xmlns:rdf="http://www.w3.org/1999/02/22-rdf-syntax-ns#"
   xmlns:svg="http://www.w3.org/2000/svg"
   xmlns="http://www.w3.org/2000/svg"
   xmlns:sodipodi="http://sodipodi.sourceforge.net/DTD/sodipodi-0.dtd"
   xmlns:inkscape="http://www.inkscape.org/namespaces/inkscape"
   inkscape:export-ydpi="96.040001"
   inkscape:export-xdpi="96.040001"
   inkscape:export-filename="C:\Users\Nathan\Desktop\inhabitlogo.png"
   sodipodi:docname="inhabitlogo.svg"
   inkscape:version="1.0 (4035a4fb49, 2020-05-01)"
   id="svg8"
   version="1.1"
   viewBox="0 0 128 128"
   height="128mm"
   width="128mm">
  <defs
     id="defs2" />
  <sodipodi:namedview
     inkscape:window-maximized="1"
     inkscape:window-y="-8"
     inkscape:window-x="-8"
     inkscape:window-height="1011"
     inkscape:window-width="1920"
     showborder="true"
     inkscape:pagecheckerboard="true"
     showgrid="false"
     inkscape:document-rotation="0"
     inkscape:current-layer="layer1"
     inkscape:document-units="mm"
     inkscape:cy="270.16475"
     inkscape:cx="312.64698"
     inkscape:zoom="0.9899495"
     inkscape:pageshadow="2"
     inkscape:pageopacity="0.0"
     borderopacity="1.0"
     bordercolor="#666666"
     pagecolor="#ffffff"
     id="base" />
  <metadata
     id="metadata5">
    <rdf:RDF>
      <cc:Work
         rdf:about="">
        <dc:format>image/svg+xml</dc:format>
        <dc:type
           rdf:resource="http://purl.org/dc/dcmitype/StillImage" />
        <dc:title></dc:title>
      </cc:Work>
    </rdf:RDF>
  </metadata>
  <g
     id="layer1"
     inkscape:groupmode="layer"
     inkscape:label="Layer 1">
    <path
       d="M 8.9999655,0 C 4.0139672,0 0,4.0139674 0,8.9999688 V 118.99997 c 0,4.986 4.0139672,8.99997 8.9999655,8.99997 H 118.99997 c 4.986,0 8.99996,-4.01397 8.99996,-8.99997 V 8.9999688 C 127.99993,4.0139674 123.98597,0 118.99997,0 Z M 21.031273,13.999663 h 85.937387 c 0.48692,0 0.96204,0.04927 1.42059,0.142626 0.45854,0.09336 0.90048,0.230815 1.32136,0.408244 0.42089,0.17743 0.82081,0.394772 1.19476,0.646989 0.37395,0.252219 0.72201,0.539588 1.03973,0.857313 0.31772,0.317725 0.60509,0.665782 0.85731,1.039728 0.25222,0.373949 0.46905,0.773358 0.64648,1.194244 0.17742,0.420886 0.3154,0.863341 0.40876,1.321882 0.0934,0.458542 0.14211,0.933673 0.14211,1.420585 v 85.937396 c 0,0.48691 -0.0488,0.96204 -0.14211,1.42058 -0.0934,0.45854 -0.23134,0.90048 -0.40876,1.32137 -0.17743,0.42089 -0.39426,0.82029 -0.64648,1.19424 -0.25222,0.37395 -0.53959,0.72252 -0.85731,1.04025 -0.31772,0.31772 -0.66578,0.60457 -1.03973,0.85679 -0.37395,0.25222 -0.77387,0.46956 -1.19476,0.64699 -0.42088,0.17743 -0.86282,0.3154 -1.32136,0.40876 -0.45855,0.0934 -0.93367,0.14211 -1.42059,0.14211 H 21.031273 c -0.486915,0 -0.962043,-0.0487 -1.420585,-0.14211 -0.458544,-0.0934 -0.90048,-0.23133 -1.321366,-0.40876 -0.420888,-0.17743 -0.820814,-0.39477 -1.19476,-0.64699 -0.373946,-0.25222 -0.722006,-0.53907 -1.039731,-0.85679 -0.317725,-0.31773 -0.605091,-0.6663 -0.857311,-1.04025 -0.252219,-0.37395 -0.469561,-0.77335 -0.646988,-1.19424 -0.177429,-0.42089 -0.314888,-0.86283 -0.408244,-1.32137 -0.09336,-0.45854 -0.142629,-0.93367 -0.142629,-1.42058 V 21.031274 c 0,-0.486912 0.04927,-0.962043 0.142629,-1.420585 0.09336,-0.458541 0.230815,-0.900996 0.408244,-1.321882 0.177427,-0.420886 0.394769,-0.820295 0.646988,-1.194244 0.25222,-0.373946 0.539586,-0.722003 0.857311,-1.039728 0.317725,-0.317725 0.665785,-0.605094 1.039731,-0.857313 0.373946,-0.252217 0.773872,-0.469559 1.19476,-0.646989 0.420886,-0.177429 0.862822,-0.314888 1.321366,-0.408244 0.458542,-0.09335 0.93367,-0.142626 1.420585,-0.142626 z"
       style="fill:#e67373;fill-opacity:1;stroke:none;stroke-width:0.499999;stroke-linejoin:round;stroke-miterlimit:4;stroke-dasharray:none;stroke-opacity:1"
       id="path854" />
    <rect
       transform="matrix(0.76976893,0.63832264,-0.63887501,0.76931055,0,0)"
       y="-65.02771"
       x="87.975021"
       height="99.964096"
       width="19.891035"
       id="rect881"
       style="fill:#e67373;fill-opacity:1;stroke:none;stroke-width:0;stroke-linejoin:round;stroke-miterlimit:4;stroke-dasharray:none;stroke-opacity:1" />
    <rect
       style="fill:#e67373;fill-opacity:1;stroke:none;stroke-width:0;stroke-linejoin:round;stroke-miterlimit:4;stroke-dasharray:none;stroke-opacity:1"
       id="rect883"
       width="19.890953"
       height="29.982908"
       x="-35.210602"
       y="68.378151"
       transform="matrix(0.64140761,-0.76720029,0.77150957,0.63621772,0,0)" />
  </g>
</svg>
